<svg xmlns="http://www.w3.org/2000/svg" width="21.382" height="21.382" viewBox="0 0 21.382 21.382">
  <g id="Icon_feather-settings" transform="translate(-0.5 -0.5)">
    <path id="Path_1" d="M21.429,17.465A3.965,3.965,0,1,1,17.465,13.5,3.965,3.965,0,0,1,21.429,17.465Z" transform="translate(-6.273 -6.273)" fill="none" stroke="#fff" stroke-linecap="round" stroke-linejoin="round" stroke-width="2"/>
    <path id="Path_2" d="M17.711,13.834a1.454,1.454,0,0,0,.291,1.6l.053.053a1.763,1.763,0,1,1-2.493,2.493l-.053-.053a1.465,1.465,0,0,0-2.484,1.04v.15a1.762,1.762,0,0,1-3.524,0v-.079a1.454,1.454,0,0,0-.951-1.33,1.454,1.454,0,0,0-1.6.291l-.053.053A1.763,1.763,0,1,1,4.4,15.561l.053-.053a1.465,1.465,0,0,0-1.04-2.484h-.15a1.762,1.762,0,0,1,0-3.524h.079a1.454,1.454,0,0,0,1.33-.951,1.454,1.454,0,0,0-.291-1.6l-.053-.053A1.763,1.763,0,1,1,6.821,4.4l.053.053a1.454,1.454,0,0,0,1.6.291h.07a1.454,1.454,0,0,0,.881-1.33v-.15a1.762,1.762,0,0,1,3.524,0v.079a1.465,1.465,0,0,0,2.484,1.04l.053-.053a1.763,1.763,0,1,1,2.493,2.493l-.053.053a1.454,1.454,0,0,0-.291,1.6v.07a1.454,1.454,0,0,0,1.33.881h.15a1.762,1.762,0,1,1,0,3.524h-.079a1.454,1.454,0,0,0-1.33.881Z" transform="translate(0 0)" fill="none" stroke="#fff" stroke-linecap="round" stroke-linejoin="round" stroke-width="2"/>
  </g>
</svg>
