<svg id="title" xmlns="http://www.w3.org/2000/svg" width="199.607" height="48.22" viewBox="0 0 199.607 48.22">
  <path id="path125343" d="M744.816-69.474a9.265,9.265,0,0,0-7.025-2.86H711.348a2.389,2.389,0,0,0-1.706.7,2.273,2.273,0,0,0-.7,1.706v22.78a2.457,2.457,0,0,0,.7,1.857,2.457,2.457,0,0,0,1.857.7,2.457,2.457,0,0,0,1.857-.7,2.663,2.663,0,0,0,.7-1.857V-61.3a6.681,6.681,0,0,1,1.656-4.616,5.641,5.641,0,0,1,4.365-1.806,5.364,5.364,0,0,1,4.064,1.606A6.489,6.489,0,0,1,725.7-61.5v14.351a2.457,2.457,0,0,0,.7,1.857,2.457,2.457,0,0,0,1.857.7,2.457,2.457,0,0,0,1.857-.7,2.663,2.663,0,0,0,.7-1.857V-61.3a6.681,6.681,0,0,1,1.656-4.616,5.606,5.606,0,0,1,4.315-1.806,5.364,5.364,0,0,1,4.064,1.606,6.489,6.489,0,0,1,1.555,4.616v14.351a2.457,2.457,0,0,0,.7,1.857,2.457,2.457,0,0,0,1.857.7,2.457,2.457,0,0,0,1.857-.7,2.663,2.663,0,0,0,.7-1.857V-61.5q0-5.118-2.71-7.978Z" transform="translate(-708.939 80.814)" fill="#dcdcdc" stroke="#e0dfdf" stroke-miterlimit="2" stroke-width="0"/>
  <path id="path125345" d="M844.333-71.149a15.233,15.233,0,0,0-5.82-1.054,14.833,14.833,0,0,0-5.018.853,9.142,9.142,0,0,0-3.813,2.559,6.121,6.121,0,0,0-1.455,4.165c0,4.064,3.211,6.724,9.634,7.928a15.848,15.848,0,0,1,5.269,1.756,3.127,3.127,0,0,1,1.555,2.559,2.839,2.839,0,0,1-1.606,2.559,8.365,8.365,0,0,1-4.416.953,10.843,10.843,0,0,1-4.064-.753,7.063,7.063,0,0,1-2.86-1.857,2.715,2.715,0,0,0-1.907-.9,3.031,3.031,0,0,0-1.756.7,2.257,2.257,0,0,0-1,1.957,2.012,2.012,0,0,0,.652,1.555,11.861,11.861,0,0,0,4.717,2.76,19.162,19.162,0,0,0,6.423,1.054,14.535,14.535,0,0,0,5.82-1.054,8.5,8.5,0,0,0,3.713-2.96,7.7,7.7,0,0,0,1.254-4.215,6.461,6.461,0,0,0-2.308-5.068c-1.505-1.3-4.115-2.308-7.727-3.061a20.3,20.3,0,0,1-4.064-1.1,4.29,4.29,0,0,1-1.907-1.254,2.653,2.653,0,0,1-.5-1.706,2.327,2.327,0,0,1,1.455-2.158,8.427,8.427,0,0,1,3.813-.8,11.378,11.378,0,0,1,3.412.5,7.859,7.859,0,0,1,2.659,1.606,3.3,3.3,0,0,0,2.358.953,2.211,2.211,0,0,0,1.4-.4,1.984,1.984,0,0,0,.853-1.555,2.883,2.883,0,0,0-.652-1.606,10.519,10.519,0,0,0-4.115-2.91Z" transform="translate(-776.959 80.733)" fill="#dcdcdc" stroke="#e0dfdf" stroke-miterlimit="2" stroke-width="0"/>
  <path id="path125347" d="M905.954-84.746v16.709a10.087,10.087,0,0,0,1.154,4.967,8.585,8.585,0,0,0,3.161,3.512,8.282,8.282,0,0,0,4.516,1.254h.9A2.982,2.982,0,0,0,917.8-59a2.237,2.237,0,0,0,.853-1.806A2.841,2.841,0,0,0,918-62.618a1.954,1.954,0,0,0-1.505-.7h-1.706a3.283,3.283,0,0,1-2.71-1.355,5.028,5.028,0,0,1-1.1-3.362V-80.43h4.265a2.444,2.444,0,0,0,1.706-.6,2.086,2.086,0,0,0,.652-1.505,2.232,2.232,0,0,0-.652-1.606,2.444,2.444,0,0,0-1.706-.6h-4.265v-7.225a2.629,2.629,0,0,0-.7-1.806,2.629,2.629,0,0,0-1.806-.7,2.458,2.458,0,0,0-1.806.7,2.418,2.418,0,0,0-.7,1.806Z" transform="translate(-820.758 94.48)" fill="#dcdcdc" stroke="#e0dfdf" stroke-miterlimit="2" stroke-width="0"/>
  <path id="path125349" d="M972.662-70.4a14,14,0,0,0-7.075-1.806,14.115,14.115,0,0,0-7.175,1.806,12.525,12.525,0,0,0-4.917,4.917,14.277,14.277,0,0,0-1.756,7.225,14.088,14.088,0,0,0,1.756,7.175,12.649,12.649,0,0,0,4.917,4.967,14.088,14.088,0,0,0,7.175,1.756,14.029,14.029,0,0,0,7.125-1.756,12.989,12.989,0,0,0,4.917-4.967,14.612,14.612,0,0,0,1.756-7.175,14.3,14.3,0,0,0-1.806-7.225A12.86,12.86,0,0,0,972.662-70.4Zm-11.691,3.914a8.924,8.924,0,0,1,4.616-1.2,8.743,8.743,0,0,1,4.566,1.2,8.5,8.5,0,0,1,3.161,3.362,10.4,10.4,0,0,1,1.154,4.867,10.254,10.254,0,0,1-1.154,4.867,8.366,8.366,0,0,1-3.161,3.312,8.743,8.743,0,0,1-4.566,1.2,8.924,8.924,0,0,1-4.616-1.2,8.367,8.367,0,0,1-3.161-3.312,9.7,9.7,0,0,1-1.154-4.867,9.829,9.829,0,0,1,1.154-4.867A8.5,8.5,0,0,1,960.971-66.483Z" transform="translate(-844.133 80.733)" fill="#dcdcdc" stroke="#e0dfdf" stroke-miterlimit="2" stroke-width="0"/>
  <path id="path125351" d="M1061.573-71.662a9.441,9.441,0,0,0-4.165-.8,11.357,11.357,0,0,0-4.717,1,10.9,10.9,0,0,0-3.713,2.76v-.953a2.231,2.231,0,0,0-2.509-2.509,2.6,2.6,0,0,0-1.857.652,2.471,2.471,0,0,0-.652,1.857v22.429a2.445,2.445,0,0,0,.652,1.907,2.583,2.583,0,0,0,1.857.6,2.4,2.4,0,0,0,1.857-.652,2.6,2.6,0,0,0,.652-1.857V-61.878a5.231,5.231,0,0,1,2.208-4.466,9.426,9.426,0,0,1,5.82-1.656,25.132,25.132,0,0,1,3.262.351,2.218,2.218,0,0,0,.753.1,1.935,1.935,0,0,0,2.007-1.606c0-.1.05-.251.05-.5C1063.078-70.458,1062.577-71.11,1061.573-71.662Z" transform="translate(-896.164 80.895)" fill="#dcdcdc" stroke="#e0dfdf" stroke-miterlimit="2" stroke-width="0"/>
  <path id="path125353" d="M1123.751-69.471a2.1,2.1,0,0,0-1.555-1.957,3.45,3.45,0,0,0-1.2-.251,2.058,2.058,0,0,0-1.957,1.455l-8.078,18.214-9.182-18.264a2.373,2.373,0,0,0-2.107-1.4,2.968,2.968,0,0,0-1,.2,2.562,2.562,0,0,0-1.054.853,1.929,1.929,0,0,0-.4,1.2,1.83,1.83,0,0,0,.251,1.054l11.29,21.425-5.018,11.29a2.671,2.671,0,0,0-.3,1.2,2.045,2.045,0,0,0,1.505,1.957,3.024,3.024,0,0,0,1.2.3,2.036,2.036,0,0,0,1.957-1.555l15.354-34.522A3.024,3.024,0,0,0,1123.751-69.471Z" transform="translate(-924.143 80.41)" fill="#dcdcdc" stroke="#e0dfdf" stroke-miterlimit="2" stroke-width="0"/>
</svg>
