<svg xmlns="http://www.w3.org/2000/svg" width="521.288" height="125.929" viewBox="0 0 521.288 125.929">
  <g id="logo-group" transform="translate(-251.356 -321.035)">
    <g id="logo-center">
      <g id="title">
        <path id="path125343" d="M802.633-64.865c-4.717-4.98-10.876-7.469-18.346-7.469H715.229a6.24,6.24,0,0,0-4.455,1.835,5.937,5.937,0,0,0-1.835,4.455V-6.552A6.417,6.417,0,0,0,710.774-1.7,6.417,6.417,0,0,0,715.622.131,6.417,6.417,0,0,0,720.471-1.7a6.956,6.956,0,0,0,1.835-4.848V-43.505a17.447,17.447,0,0,1,4.324-12.056,14.731,14.731,0,0,1,11.4-4.717,14.008,14.008,0,0,1,10.614,4.193c2.621,2.752,4.062,6.814,4.062,12.056V-6.552A6.417,6.417,0,0,0,754.541-1.7,6.417,6.417,0,0,0,759.39.131,6.417,6.417,0,0,0,764.238-1.7a6.956,6.956,0,0,0,1.835-4.848V-43.505A17.448,17.448,0,0,1,770.4-55.561a14.641,14.641,0,0,1,11.269-4.717,14.008,14.008,0,0,1,10.614,4.193c2.621,2.752,4.062,6.814,4.062,12.056V-6.552A6.417,6.417,0,0,0,798.177-1.7,6.417,6.417,0,0,0,803.026.131,6.417,6.417,0,0,0,807.874-1.7a6.956,6.956,0,0,0,1.835-4.848V-44.029q0-13.366-7.076-20.835Z" transform="translate(-457.583 415.515)" fill="#000000" stroke="#e0dfdf" stroke-miterlimit="2" stroke-width="0"/>
        <path id="path125345" d="M872.149-69.451a39.784,39.784,0,0,0-15.2-2.752,38.738,38.738,0,0,0-13.1,2.228,23.875,23.875,0,0,0-9.959,6.683,15.987,15.987,0,0,0-3.8,10.876c0,10.614,8.387,17.559,25.16,20.7,6.421,1.31,11.007,2.752,13.759,4.586,2.621,1.835,4.062,4.062,4.062,6.683,0,2.883-1.441,5.111-4.193,6.683-2.752,1.7-6.552,2.49-11.532,2.49a28.315,28.315,0,0,1-10.614-1.966,18.446,18.446,0,0,1-7.469-4.848,7.092,7.092,0,0,0-4.98-2.359,7.916,7.916,0,0,0-4.586,1.835,5.894,5.894,0,0,0-2.621,5.111,5.254,5.254,0,0,0,1.7,4.062c2.883,3.014,7.076,5.373,12.318,7.207A50.043,50.043,0,0,0,857.866.524a37.959,37.959,0,0,0,15.2-2.752,22.2,22.2,0,0,0,9.7-7.731,20.1,20.1,0,0,0,3.276-11.007A16.873,16.873,0,0,0,880.012-34.2c-3.931-3.407-10.745-6.028-20.18-7.993a53.028,53.028,0,0,1-10.614-2.883c-2.49-1.048-4.193-2.1-4.979-3.276a6.928,6.928,0,0,1-1.31-4.455c0-2.359,1.179-4.324,3.8-5.635a22.008,22.008,0,0,1,9.959-2.1,29.713,29.713,0,0,1,8.911,1.31,20.524,20.524,0,0,1,6.945,4.193,8.614,8.614,0,0,0,6.159,2.49,5.774,5.774,0,0,0,3.669-1.048,5.183,5.183,0,0,0,2.228-4.062,7.528,7.528,0,0,0-1.7-4.193,27.471,27.471,0,0,0-10.745-7.6Z" transform="translate(-444.843 415.515)" fill="#000000" stroke="#e0dfdf" stroke-miterlimit="2" stroke-width="0"/>
        <path id="path125347" d="M905.954-69.058v43.636a26.342,26.342,0,0,0,3.014,12.973,22.42,22.42,0,0,0,8.255,9.173A21.63,21.63,0,0,0,929.017,0h2.359a7.787,7.787,0,0,0,5.5-1.835,5.841,5.841,0,0,0,2.228-4.717,7.419,7.419,0,0,0-1.7-4.717,5.1,5.1,0,0,0-3.931-1.835h-4.455a8.574,8.574,0,0,1-7.076-3.538,13.132,13.132,0,0,1-2.883-8.78V-57.789H930.2a6.382,6.382,0,0,0,4.455-1.572,5.447,5.447,0,0,0,1.7-3.931,5.829,5.829,0,0,0-1.7-4.193,6.383,6.383,0,0,0-4.455-1.572H919.058v-18.87a6.866,6.866,0,0,0-1.835-4.717,6.865,6.865,0,0,0-4.717-1.835,6.418,6.418,0,0,0-4.717,1.835,6.316,6.316,0,0,0-1.835,4.717Z" transform="translate(-432.103 415.515)" fill="#000000" stroke="#e0dfdf" stroke-miterlimit="2" stroke-width="0"/>
        <path id="path125349" d="M1006.382-67.486A36.573,36.573,0,0,0,987.905-72.2a36.862,36.862,0,0,0-18.739,4.717,32.711,32.711,0,0,0-12.842,12.842,37.285,37.285,0,0,0-4.586,18.87,36.793,36.793,0,0,0,4.586,18.739A33.035,33.035,0,0,0,969.166-4.062,36.794,36.794,0,0,0,987.905.524a36.639,36.639,0,0,0,18.608-4.586,33.924,33.924,0,0,0,12.842-12.973,38.161,38.161,0,0,0,4.586-18.739,37.353,37.353,0,0,0-4.717-18.87,33.585,33.585,0,0,0-12.842-12.842ZM975.849-57.264a23.306,23.306,0,0,1,12.056-3.145,22.834,22.834,0,0,1,11.925,3.145,22.2,22.2,0,0,1,8.256,8.78,27.161,27.161,0,0,1,3.014,12.711,26.78,26.78,0,0,1-3.014,12.711,21.85,21.85,0,0,1-8.256,8.649,22.834,22.834,0,0,1-11.925,3.145,23.306,23.306,0,0,1-12.056-3.145,21.85,21.85,0,0,1-8.255-8.649,25.333,25.333,0,0,1-3.014-12.711,25.671,25.671,0,0,1,3.014-12.711,22.2,22.2,0,0,1,8.255-8.78Z" transform="translate(-419.363 415.515)" fill="#000000" stroke="#e0dfdf" stroke-miterlimit="2" stroke-width="0"/>
        <path id="path125351" d="M1089.956-70.368a24.654,24.654,0,0,0-10.876-2.1,29.657,29.657,0,0,0-12.318,2.621,28.467,28.467,0,0,0-9.7,7.207v-2.49c0-4.324-2.228-6.552-6.552-6.552a6.784,6.784,0,0,0-4.849,1.7,6.452,6.452,0,0,0-1.7,4.848V-6.552c0,2.228.524,3.931,1.7,4.98A6.746,6.746,0,0,0,1050.513,0a6.261,6.261,0,0,0,4.849-1.7,6.784,6.784,0,0,0,1.7-4.848V-44.816a13.661,13.661,0,0,1,5.766-11.663c3.8-2.883,8.911-4.324,15.2-4.324a65.631,65.631,0,0,1,8.518.917,5.793,5.793,0,0,0,1.966.262c2.621,0,4.455-1.31,5.242-4.193,0-.262.131-.655.131-1.31,0-2.1-1.31-3.8-3.931-5.242Z" transform="translate(-406.623 415.515)" fill="#000000" stroke="#e0dfdf" stroke-miterlimit="2" stroke-width="0"/>
        <path id="path125353" d="M1166.527-65.913c0-2.359-1.442-4.062-4.062-5.111a9.008,9.008,0,0,0-3.145-.655c-2.359,0-4.062,1.31-5.111,3.8l-21.1,47.568-23.98-47.7c-1.31-2.359-3.145-3.669-5.5-3.669a7.754,7.754,0,0,0-2.621.524,6.687,6.687,0,0,0-2.752,2.228,5.036,5.036,0,0,0-1.048,3.145,4.776,4.776,0,0,0,.655,2.752l29.484,55.954-13.1,29.484a6.977,6.977,0,0,0-.786,3.145q0,3.538,3.931,5.111a7.9,7.9,0,0,0,3.145.786c2.359,0,4.062-1.31,5.11-4.062l40.1-90.156A7.9,7.9,0,0,0,1166.527-65.913Z" transform="translate(-393.883 415.515)" fill="#000000" stroke="#e0dfdf" stroke-miterlimit="2" stroke-width="0"/>
      </g>
    </g>
  </g>
</svg>
